<svg width="100" height="100" viewBox="0 0 100 100" fill="none" xmlns="http://www.w3.org/2000/svg">
<g clip-path="url(#clip0_4_41)">
<path d="M172.7 25.1C172.7 28.7 169.8 31.6 166.2 31.6C162.6 31.6 159.7 28.7 159.7 25.1C159.7 21.5 162.5 18.6 166.2 18.6C169.9 18.7 172.7 21.6 172.7 25.1ZM145.9 38.2C145.9 38.8 145.9 39.8 145.9 39.8C145.9 39.8 142.8 35.8 136.2 35.8C125.3 35.8 116.8 44.1 116.8 55.6C116.8 67 125.2 75.4 136.2 75.4C142.9 75.4 145.9 71.3 145.9 71.3V73C145.9 73.8 146.5 74.4 147.3 74.4H155.4V36.8C155.4 36.8 148 36.8 147.3 36.8C146.5 36.8 145.9 37.5 145.9 38.2ZM145.9 62.3C144.4 64.5 141.4 66.4 137.8 66.4C131.4 66.4 126.5 62.4 126.5 55.6C126.5 48.8 131.4 44.8 137.8 44.8C141.3 44.8 144.5 46.8 145.9 48.9V62.3ZM161.4 36.8H171V74.4H161.4V36.8ZM304.8 35.8C298.2 35.8 295.1 39.8 295.1 39.8V18.7H285.5V74.4C285.5 74.4 292.9 74.4 293.6 74.4C294.4 74.4 295 73.7 295 73V71.3C295 71.3 298.1 75.4 304.7 75.4C315.6 75.4 324.1 67 324.1 55.6C324.1 44.2 315.6 35.8 304.8 35.8ZM303.2 66.3C299.5 66.3 296.6 64.4 295.1 62.2V48.8C296.6 46.8 299.8 44.7 303.2 44.7C309.6 44.7 314.5 48.7 314.5 55.5C314.5 62.3 309.6 66.3 303.2 66.3ZM280.5 52.1V74.5H270.9V53.2C270.9 47 268.9 44.5 263.5 44.5C260.6 44.5 257.6 46 255.7 48.2V74.4H246.1V36.8H253.7C254.5 36.8 255.1 37.5 255.1 38.2V39.8C257.9 36.9 261.6 35.8 265.3 35.8C269.5 35.8 273 37 275.8 39.4C279.2 42.2 280.5 45.8 280.5 52.1ZM222.8 35.8C216.2 35.8 213.1 39.8 213.1 39.8V18.7H203.5V74.4C203.5 74.4 210.9 74.4 211.6 74.4C212.4 74.4 213 73.7 213 73V71.3C213 71.3 216.1 75.4 222.7 75.4C233.6 75.4 242.1 67 242.1 55.6C242.2 44.2 233.7 35.8 222.8 35.8ZM221.2 66.3C217.5 66.3 214.6 64.4 213.1 62.2V48.8C214.6 46.8 217.8 44.7 221.2 44.7C227.6 44.7 232.5 48.7 232.5 55.5C232.5 62.3 227.6 66.3 221.2 66.3ZM195.2 35.8C198.1 35.8 199.6 36.3 199.6 36.3V45.2C199.6 45.2 191.6 42.5 186.6 48.2V74.5H177V36.8C177 36.8 184.4 36.8 185.1 36.8C185.9 36.8 186.5 37.5 186.5 38.2V39.8C188.3 37.7 192.2 35.8 195.2 35.8ZM95.5 71C95 69.8 94.5 68.5 94 67.4C93.2 65.6 92.4 63.9 91.7 62.3L91.6 62.2C84.7 47.2 77.3 32 69.5 17L69.2 16.4C68.4 14.9 67.6 13.3 66.8 11.7C65.8 9.9 64.8 8 63.2 6.2C60 2.2 55.4 0 50.5 0C45.5 0 41 2.2 37.7 6C36.2 7.8 35.1 9.7 34.1 11.5C33.3 13.1 32.5 14.7 31.7 16.2L31.4 16.8C23.7 31.8 16.2 47 9.30003 62L9.20003 62.2C8.50003 63.8 7.70003 65.5 6.90003 67.3C6.40003 68.4 5.90003 69.6 5.40003 70.9C4.10003 74.6 3.70003 78.1 4.20003 81.7C5.30003 89.2 10.3 95.5 17.2 98.3C19.8 99.4 22.5 99.9 25.3 99.9C26.1 99.9 27.1 99.8 27.9 99.7C31.2 99.3 34.6 98.2 37.9 96.3C42 94 45.9 90.7 50.3 85.9C54.7 90.7 58.7 94 62.7 96.3C66 98.2 69.4 99.3 72.7 99.7C73.5 99.8 74.5 99.9 75.3 99.9C78.1 99.9 80.9 99.4 83.4 98.3C90.4 95.5 95.3 89.1 96.4 81.7C97.2 78.2 96.8 74.7 95.5 71ZM50.4 76.2C45 69.4 41.5 63 40.3 57.6C39.8 55.3 39.7 53.3 40 51.5C40.2 49.9 40.8 48.5 41.6 47.3C43.5 44.6 46.7 42.9 50.4 42.9C54.1 42.9 57.4 44.5 59.2 47.3C60 48.5 60.6 49.9 60.8 51.5C61.1 53.3 61 55.4 60.5 57.6C59.3 62.9 55.8 69.3 50.4 76.2ZM90.3 80.9C89.6 86.1 86.1 90.6 81.2 92.6C78.8 93.6 76.2 93.9 73.6 93.6C71.1 93.3 68.6 92.5 66 91C62.4 89 58.8 85.9 54.6 81.3C61.2 73.2 65.2 65.8 66.7 59.2C67.4 56.1 67.5 53.3 67.2 50.7C66.8 48.2 65.9 45.9 64.5 43.9C61.4 39.4 56.2 36.8 50.4 36.8C44.6 36.8 39.4 39.5 36.3 43.9C34.9 45.9 34 48.2 33.6 50.7C33.2 53.3 33.3 56.2 34.1 59.2C35.6 65.8 39.7 73.3 46.2 81.4C42.1 86 38.4 89.1 34.8 91.1C32.2 92.6 29.7 93.4 27.2 93.7C24.5 94 21.9 93.6 19.6 92.7C14.7 90.7 11.2 86.2 10.5 81C10.2 78.5 10.4 76 11.4 73.2C11.7 72.2 12.2 71.2 12.7 70C13.4 68.4 14.2 66.7 15 65L15.1 64.8C22 49.9 29.4 34.7 37.1 19.9L37.4 19.3C38.2 17.8 39 16.2 39.8 14.7C40.6 13.1 41.5 11.6 42.6 10.3C44.7 7.9 47.5 6.6 50.6 6.6C53.7 6.6 56.5 7.9 58.6 10.3C59.7 11.6 60.6 13.1 61.4 14.7C62.2 16.2 63 17.8 63.8 19.3L64.1 19.9C71.7 34.8 79.1 50 86 64.9V65C86.8 66.6 87.5 68.4 88.3 70C88.8 71.2 89.3 72.2 89.6 73.2C90.4 75.8 90.7 78.3 90.3 80.9Z" fill="white"/>
</g>
<defs>
<clipPath id="clip0_4_41">
<rect width="320.1" height="99.9" fill="white" transform="translate(4)"/>
</clipPath>
</defs>
</svg>
